<?xml version="1.0" encoding="utf-8"?>
<!-- Generator: Adobe Illustrator 23.1.0, SVG Export Plug-In . SVG Version: 6.00 Build 0)  -->
<svg version="1.1" id="Layer_1" xmlns="http://www.w3.org/2000/svg" xmlns:xlink="http://www.w3.org/1999/xlink" x="0px" y="0px"
	 viewBox="0 0 24.9 24.2" style="enable-background:new 0 0 24.9 24.2;" xml:space="preserve">
<g>
	<path d="M24.6,5.9c-0.3-0.3-0.7-0.6-1.1-0.6l-18.1-2V3.1C5.2,1.4,3.9,0,2.6,0h-2C0.2,0,0,0.2,0,0.5S0.2,1,0.5,1h2
		c0.8,0,1.6,1,1.8,2.1l0.8,8.2c0.1,1.5-0.2,3-0.8,4.4c-0.4,0.6-0.4,1.3,0,1.9c0.5,0.7,1.3,1,2.1,0.9h16.5c0.3,0,0.5-0.2,0.5-0.5
		s-0.2-0.5-0.5-0.5H6.3c-0.4,0.1-0.9-0.1-1.1-0.4c-0.1-0.3-0.1-0.6,0.1-0.9c0.3-0.5,0.5-1.1,0.7-1.7h16c0.9,0,1.6-0.6,1.8-1.4l1.1-6
		C25,6.7,24.9,6.2,24.6,5.9L24.6,5.9z M22.8,12.9c-0.1,0.3-0.4,0.6-0.7,0.6h-16c0.1-0.7,0.2-1.5,0.1-2.2l-0.7-7l17.9,2
		c0.1,0,0.2,0.1,0.3,0.2c0.1,0.1,0.1,0.2,0.1,0.3L22.8,12.9L22.8,12.9z M19.8,24.2c-1.3,0-2.3-1-2.3-2.3s1-2.3,2.3-2.3
		s2.3,1,2.3,2.3S21.1,24.2,19.8,24.2z M19.8,20.6c-0.5,0-0.9,0.2-1.1,0.6s-0.2,0.9,0,1.3s0.7,0.6,1.1,0.6c0.7,0,1.3-0.6,1.3-1.3
		S20.6,20.6,19.8,20.6z M7.8,24.2c-1.3,0-2.3-1-2.3-2.3s1-2.3,2.3-2.3s2.3,1,2.3,2.3S9.1,24.2,7.8,24.2z M7.8,20.6
		c-0.5,0-0.9,0.2-1.1,0.6s-0.2,0.9,0,1.3s0.7,0.6,1.1,0.6c0.7,0,1.3-0.6,1.3-1.3S8.6,20.6,7.8,20.6z"/>
</g>
</svg>
